<?xml version="1.0" encoding="utf-8"?>
<!-- Generator: Adobe Illustrator 16.0.0, SVG Export Plug-In . SVG Version: 6.00 Build 0)  -->
<!DOCTYPE svg PUBLIC "-//W3C//DTD SVG 1.1//EN" "http://www.w3.org/Graphics/SVG/1.1/DTD/svg11.dtd">
<svg version="1.1" id="Layer_1" xmlns="http://www.w3.org/2000/svg" xmlns:xlink="http://www.w3.org/1999/xlink" x="0px" y="0px"
	 width="512px" height="512px" viewBox="0 0 512 512" enable-background="new 0 0 512 512" xml:space="preserve">
<path id="c_2_" fill="#A4C639" stroke="#FFFFFF" stroke-width="7.2" d="M223.393,183.72L223.393,183.72
	c0,9.163-12.684,16.591-28.33,16.592l-100.338-0.001c-15.646,0-28.331-1.049-28.331-16.591l0,0c0-9.163,68.059-64.015,83.705-64.015
	h101.217C266.964,119.705,223.393,174.557,223.393,183.72z"/>
<path id="c_6_" fill="#A4C639" stroke="#FFFFFF" stroke-width="7.2" d="M343.479,252.135L343.479,252.135
	c15.647,0.001,28.332,12.684,28.332,28.329v100.338c0,15.647-12.685,28.33-28.33,28.33l0,0c-15.647,0-28.332-12.683-28.33-28.33
	l-0.002-100.337C315.15,264.818,327.833,252.135,343.479,252.135z"/>
<g>
	<g id="b">
		
			<ellipse transform="matrix(0.7071 -0.7071 0.7071 0.7071 -46.2478 275.7601)" fill="#A4C639" stroke="#FFFFFF" stroke-width="14.4" cx="309.746" cy="193.706" rx="99.157" ry="107.419"/>
		<path fill="#A4C639" stroke="#FFFFFF" stroke-width="14.4" d="M269.682,118.584l115.188,115.187
			c10.141,10.143,10.141,26.584,0,36.727L269.682,385.685c-10.143,10.143-26.586,10.143-36.727,0.002L117.767,270.499
			c-10.142-10.143-10.142-26.585,0-36.728l115.188-115.188C243.096,108.441,259.539,108.442,269.682,118.584z"/>
	</g>
</g>
<g transform="scale(-1,1)">
	<path id="c_1_" fill="#A4C639" stroke="#FFFFFF" stroke-width="7.2" d="M257.161,303.052L257.161,303.052
		c-11.064-11.064-29.002-11.064-40.066,0l-70.948,70.947c-11.065,11.065-11.063,29.002,0,40.066l0,0
		c11.063,11.063,29,11.063,40.064-0.001l70.948-70.949C268.225,332.053,268.225,314.115,257.161,303.052z"/>
</g>
<g>
	<path id="c_3_" fill="#A4C639" stroke="#FFFFFF" stroke-width="7.2" d="M200.401,246.292L200.401,246.292
		c11.064,11.064,11.064,29.001,0,40.065l-70.948,70.949c-11.065,11.064-29.001,11.063-40.065,0l0,0
		c-11.063-11.063-11.065-29.001,0-40.065l70.948-70.949C171.4,235.228,189.337,235.229,200.401,246.292z"/>
</g>
<g id="b_1_">
	
		<ellipse transform="matrix(0.7071 -0.7071 0.7071 0.7071 -42.4288 277.343)" fill="#A4C639" cx="313.566" cy="189.887" rx="99.157" ry="107.419"/>
	<path fill="#A4C639" d="M273.501,114.765l115.188,115.187c10.141,10.143,10.141,26.585,0,36.728L273.501,381.865
		c-10.143,10.143-26.586,10.143-36.727,0.002L121.586,266.68c-10.142-10.143-10.142-26.585,0-36.728l115.188-115.188
		C246.916,104.623,263.358,104.623,273.501,114.765z"/>
</g>
<g>
	<path fill="#FFFFFF" stroke="#FFFFFF" stroke-width="7.2" d="M227.529,117.331l158.592,158.593"/>
	<circle fill="#FFFFFF" stroke="#FFFFFF" stroke-width="7.2" cx="308.912" cy="124.426" r="4.722"/>
	<circle fill="#FFFFFF" stroke="#FFFFFF" stroke-width="7.2" cx="379.026" cy="194.54" r="4.722"/>
</g>
<path id="c_4_" fill="#A4C639" stroke="#FFFFFF" stroke-width="7.2" d="M200.059,110.72L200.059,110.72
	c15.171,0,27.47,12.697,27.471,28.36l-0.001,100.443c0,15.664-12.299,28.361-27.469,28.361l0,0
	c-15.171,0-27.471-12.697-27.469-28.361l-0.001-100.443C172.59,123.417,184.888,110.72,200.059,110.72z"/>
<path fill="#A4C639" d="M347.293,59.237L347.293,59.237c-2.238-0.647-4.577,0.641-5.225,2.88l-13.179,45.515
	c-0.648,2.238,0.641,4.578,2.88,5.226l0,0c2.239,0.648,4.577-0.641,5.226-2.879l13.178-45.515
	C350.82,62.225,349.531,59.884,347.293,59.237z"/>
<path fill="#A4C639" d="M350.322,62.908L350.322,62.908c-0.21-2.321-2.259-4.032-4.581-3.821l-47.192,4.26
	c-2.32,0.209-4.032,2.26-3.822,4.582l0,0c0.21,2.321,2.261,4.032,4.581,3.822l47.192-4.262
	C348.82,67.28,350.532,65.229,350.322,62.908z"/>
<path fill="#A4C639" d="M346.453,72.787L346.453,72.787c-0.154-1.768-1.703-3.066-3.463-2.901l-35.767,3.354
	c-1.759,0.165-3.061,1.73-2.906,3.5l0,0c0.154,1.768,1.703,3.066,3.462,2.902l35.766-3.355
	C345.306,76.121,346.605,74.554,346.453,72.787z"/>
<path fill="#A4C639" d="M345.037,82.168L345.037,82.168c-0.118-1.251-1.232-2.176-2.492-2.067l-25.582,2.203
	c-1.259,0.108-2.183,1.209-2.064,2.461l0,0c0.119,1.251,1.234,2.177,2.491,2.068l25.584-2.204
	C344.231,84.521,345.155,83.419,345.037,82.168z"/>
<path fill="#A4C639" d="M453.958,168.437L453.958,168.437c-1.623-2.207-4.712-2.674-6.897-1.041l-44.481,33.192
	c-2.188,1.632-2.646,4.746-1.02,6.953l0,0c1.623,2.209,4.713,2.676,6.901,1.043l44.479-33.192
	C455.126,173.758,455.584,170.644,453.958,168.437z"/>
<path fill="#A4C639" d="M452.766,170.564L452.766,170.564c1.064-2.073,0.246-4.615-1.827-5.68l-42.147-21.65
	c-2.073-1.064-4.616-0.248-5.682,1.825l0,0c-1.063,2.073-0.25,4.616,1.825,5.681l42.15,21.649
	C449.156,173.454,451.701,172.636,452.766,170.564z"/>
<path fill="#A4C639" d="M444.211,176.839L444.211,176.839c0.815-1.576,0.201-3.501-1.373-4.303l-32.013-16.304
	c-1.574-0.803-3.51-0.176-4.326,1.402l0,0c-0.815,1.576-0.204,3.501,1.372,4.304l32.011,16.302
	C441.457,179.042,443.393,178.414,444.211,176.839z"/>
<path fill="#A4C639" d="M437.994,184.008L437.994,184.008c0.569-1.121,0.123-2.498-0.999-3.081l-22.792-11.826
	c-1.12-0.582-2.491-0.146-3.061,0.975l0,0c-0.567,1.12-0.121,2.499,0.998,3.081l22.794,11.825
	C436.055,185.565,437.426,185.128,437.994,184.008z"/>
</svg>
